Coordinates
version=1
nRows=13
nColumns=40
inDegrees=yes

Units are S.I. units (second, meters, Newtons, ...)
Angles are in degrees.

endheader
time	pelvis_tilt	pelvis_list	pelvis_rotation	pelvis_tx	pelvis_ty	pelvis_tz	hip_flexion_r	hip_adduction_r	hip_rotation_r	knee_angle_r	knee_angle_r_beta	ankle_angle_r	subtalar_angle_r	mtp_angle_r	hip_flexion_l	hip_adduction_l	hip_rotation_l	knee_angle_l	knee_angle_l_beta	ankle_angle_l	subtalar_angle_l	mtp_angle_l	lumbar_extension	lumbar_bending	lumbar_rotation	arm_flex_r	arm_add_r	arm_rot_r	elbow_flex_r	pro_sup_r	wrist_flex_r	wrist_dev_r	arm_flex_l	arm_add_l	arm_rot_l	elbow_flex_l	pro_sup_l	wrist_flex_l	wrist_dev_l
     27.53500000	     -6.29164349	     -8.11107473	      6.18213907	      1.03196142	      0.91055804	      0.46590193	     -0.29434040	      5.77201785	    -18.10736583	      9.09061097	      9.09061097	     17.64276342	      3.55924475	     -3.35662952	     37.28081296	     -9.08343910	      3.28396706	     22.85762861	     22.85762861	      6.71288045	     -8.02622248	     11.64582407	    -10.24918814	      5.48759681	      5.28318308	     49.56563000	    -16.89476018	     -1.47503509	    100.32088103	     44.19051042	      0.00000000	      0.00000000	    -19.33617023	     -5.28702243	      4.59250542	     24.10796305	     45.58261704	      0.00000000	      0.00000000
     27.54650000	     -6.31151615	     -8.08236171	      5.91341521	      1.03343650	      0.90889048	      0.46343259	     -0.58325468	      5.48313288	    -17.67753067	      9.92594557	      9.92594557	     18.91150303	      3.42739352	     -1.58584150	     36.78054521	     -9.09596156	      2.66152194	     22.88678664	     22.88678664	      4.47400669	     -9.02702861	      7.74311580	     -9.99294482	      5.39122952	      5.05704132	     50.54782961	    -16.36372414	     -1.03889571	    102.78589070	     44.18592827	      0.00000000	      0.00000000	    -21.11352206	     -5.55213984	      6.26326504	     25.59256675	     45.20827450	      0.00000000	      0.00000000
     27.55800000	     -6.35314408	     -7.95719982	      5.62733781	      1.03469430	      0.90736714	      0.46080970	     -0.76856970	      5.04331028	    -17.23234184	     10.84381682	     10.84381682	     19.55897797	      3.08318750	     -1.63678392	     36.59879810	     -9.02700011	      2.17397852	     23.69581627	     23.69581627	      3.86766114	     -9.62030965	      7.18258947	     -9.68506225	      5.24291953	      4.87528653	     51.66279552	    -15.69206036	     -0.86539556	    104.40380059	     44.15460257	      0.00000000	      0.00000000	    -22.05024160	     -5.27711403	      6.73769896	     25.41212630	     45.11165000	      0.00000000	      0.00000000
     27.56950000	     -6.33665019	     -7.80284567	      5.34041249	      1.03584509	      0.90616806	      0.45811999	     -0.85258279	      4.53702933	    -16.69453640	     12.04530286	     12.04530286	     20.12672419	      2.48217571	     -1.54904703	     36.44964030	     -8.94061288	      1.81049324	     24.75825898	     24.75825898	      3.29551852	    -10.39911126	      6.30467264	     -9.51983732	      5.05475562	      4.81245168	     52.55188938	    -15.29258578	     -0.66360207	    106.20431186	     44.11979915	      0.00000000	      0.00000000	    -22.82079544	     -5.18521461	      7.19613443	     25.50081388	     45.02088577	      0.00000000	      0.00000000
     27.58100000	     -6.28545203	     -7.63047953	      5.04436402	      1.03680655	      0.90531525	      0.45536636	     -0.79862897	      3.96376821	    -16.13034497	     13.53791069	     13.53791069	     20.51333084	      1.75841116	     -1.59066799	     36.32230529	     -8.82002746	      1.64639741	     25.98693489	     25.98693489	      3.04055033	    -11.13780470	      5.56567509	     -9.41839994	      4.82691510	      4.76840622	     53.29802682	    -14.90905381	     -0.49501245	    107.93413893	     44.08505833	      0.00000000	      0.00000000	    -23.31650058	     -5.05937002	      7.61488284	     25.53146481	     44.94481091	      0.00000000	      0.00000000
     27.59250000	     -6.18301757	     -7.47164189	      4.75803373	      1.03762879	      0.90484669	      0.45253298	     -0.62066841	      3.37974374	    -15.47787968	     15.32337678	     15.32337678	     20.78650780	      0.81894838	     -1.61053176	     36.11154768	     -8.68829458	      1.59973054	     27.15370087	     27.15370087	      2.78225537	    -12.01177539	      4.35313877	     -9.42198350	      4.66789939	      5.07710194	     53.71019811	    -14.97168259	     -0.55588421	    110.08143749	     44.27596853	      0.00000000	      0.00000000	    -23.52282906	     -5.60894027	     11.81461426	     25.93910951	     44.39288295	      0.00000000	      0.00000000
     27.60400000	     -6.07177378	     -7.27447471	      4.46773720	      1.03823848	      0.90473891	      0.44960176	     -0.21272916	      2.67539645	    -14.95879092	     17.51687388	     17.51687388	     20.77885967	     -0.08941990	     -2.10997160	     35.89284454	     -8.51454102	      1.53962424	     28.36417685	     28.36417685	      3.24208569	    -12.54167012	      4.18083720	     -9.46206666	      4.45160313	      4.86353223	     54.25577248	    -14.45984381	     -0.36373061	    111.43957905	     44.23979875	      0.00000000	      0.00000000	    -23.54788349	     -5.42645618	     11.90639493	     25.83247168	     44.39205602	      0.00000000	      0.00000000
     27.61550000	     -5.98568204	     -7.05598724	      4.16715687	      1.03869836	      0.90496692	      0.44658194	      0.45169009	      1.93011663	    -14.33520095	     20.07849962	     20.07849962	     20.49853832	     -1.40200102	     -2.82181760	     35.60213982	     -8.28431803	      1.48902477	     29.39225090	     29.39225090	      3.91391524	    -13.04912464	      4.21152820	     -9.47199662	      4.25439258	      4.71955293	     54.33992579	    -14.11665361	     -0.15031355	    112.99623703	     44.19760892	      0.00000000	      0.00000000	    -23.30392672	     -5.30030213	     12.02898205	     25.65309320	     44.39461277	      0.00000000	      0.00000000
     27.62700000	     -5.79662230	     -6.84078296	      3.86056952	      1.03902504	      0.90564943	      0.44355216	      1.17659832	      1.16226903	    -13.81393640	     22.90017327	     22.90017327	     19.99597475	     -2.68315647	     -3.53994709	     35.11291252	     -8.06477452	      1.40550333	     30.25840084	     30.25840084	      4.71953401	    -13.43969525	      4.13254343	     -9.62929955	      4.04890980	      4.62010725	     54.44770742	    -13.79346485	      0.01259149	    114.26789341	     44.16173250	      0.00000000	      0.00000000	    -22.85520128	     -5.19634086	     12.14112016	     25.51189353	     44.39645583	      0.00000000	      0.00000000
     27.63850000	     -5.77246653	     -6.63001843	      3.53811354	      1.03904915	      0.90644419	      0.44062914	      2.27261593	      0.46251784	    -13.06454127	     25.85345436	     25.85345436	     18.29366089	     -5.02219591	     -6.51748706	     34.75323399	     -7.82191641	      1.31277651	     31.01836624	     31.01836624	      6.15849095	    -13.49916004	      5.59287552	     -9.63090237	      3.81319124	      5.15571639	     53.61322597	    -14.28209033	     -0.23310805	    116.87886891	     44.14819722	      0.00000000	      0.00000000	    -21.59504568	     -5.26155900	     12.83147639	     24.45161587	     44.38836824	      0.00000000	      0.00000000
     27.65000000	     -5.79001172	     -6.43757587	      3.20525443	      1.03892407	      0.90739477	      0.43774399	      3.69379872	     -0.30298601	    -12.63687820	     29.35262259	     29.35262259	     17.29367710	     -6.81756260	     -7.14657939	     34.18974039	     -7.60904468	      1.06940368	     31.25031956	     31.25031956	      6.88340256	    -13.72455641	      5.42491171	     -9.54536450	      3.64308858	      4.80889025	     53.24181338	    -13.80767218	      0.11450963	    117.89494008	     44.11537228	      0.00000000	      0.00000000	    -20.97595064	     -5.18150731	     12.97277654	     24.48075339	     44.39101055	      0.00000000	      0.00000000
     27.66150000	     -5.61709394	     -6.13571603	      2.80264083	      1.03870827	      0.90871484	      0.43496177	      5.05762533	     -1.19141784	    -12.23428795	     33.01076894	     33.01076894	     16.10528132	     -8.55786643	     -7.57939931	     33.38993808	     -7.35725255	      0.66184167	     31.48251182	     31.48251182	      7.66832342	    -13.86766690	      5.15098275	     -9.73139846	      3.33857437	      4.61393114	     52.67513972	    -13.44142472	      0.43752516	    118.72369609	     44.08352202	      0.00000000	      0.00000000	    -20.12414573	     -5.26340544	     13.03471231	     24.57133880	     44.40523680	      0.00000000	      0.00000000
     27.67300000	     -5.64052408	     -5.87320791	      2.42684777	      1.03821789	      0.90990443	      0.43235052	      6.80743554	     -1.99296249	    -11.85935372	     36.81333169	     36.81333169	     14.73018081	    -10.71182521	     -7.82980361	     32.68202435	     -7.12120370	      0.21026308	     31.41622704	     31.41622704	      8.35052829	    -13.89575540	      4.90957509	     -9.67325228	      3.05456023	      4.39175541	     51.76585682	    -13.17717276	      0.81713500	    119.71280197	     44.04377475	      0.00000000	      0.00000000	    -19.16928786	     -5.37526094	     13.07634748	     24.68104746	     44.42534000	      0.00000000	      0.00000000
